<svg id="svg" version="1.1" xmlns="http://www.w3.org/2000/svg" xmlns:xlink="http://www.w3.org/1999/xlink" width="400" height="399.86671109630123" viewBox="0, 0, 400,399.86671109630123"><g id="svgg"><path id="path0" d="M178.833 78.325 C 166.003 79.701,157.842 88.971,158.212 101.750 C 158.618 115.839,168.190 124.633,182.050 123.651 C 188.376 123.202,193.116 120.849,196.382 116.535 L 197.050 115.654 195.400 113.953 C 191.866 110.309,191.792 110.244,190.962 110.012 C 189.794 109.686,188.928 109.967,187.136 111.254 C 183.952 113.540,179.573 113.856,176.126 112.049 C 169.902 108.786,168.731 97.154,174.082 91.734 C 177.512 88.259,182.899 87.845,187.640 90.690 C 191.077 92.753,192.032 92.419,195.295 88.008 C 196.350 86.583,197.289 85.319,197.383 85.200 C 197.801 84.671,194.221 81.770,191.583 80.499 C 187.867 78.709,182.996 77.878,178.833 78.325 M110.333 100.986 L 110.333 123.333 119.958 123.330 C 132.515 123.326,134.449 123.080,138.917 120.921 C 155.100 113.102,155.037 88.477,138.814 81.024 C 134.209 78.908,133.348 78.797,120.875 78.711 L 110.333 78.639 110.333 100.986 M217.860 80.792 C 216.291 84.795,215.466 86.918,214.992 88.167 C 214.732 88.854,214.023 90.692,213.416 92.250 C 212.810 93.808,211.909 96.133,211.414 97.417 C 210.919 98.700,210.019 101.025,209.414 102.583 C 208.809 104.142,207.909 106.467,207.414 107.750 C 206.431 110.298,205.165 113.567,202.942 119.301 C 202.149 121.346,201.500 123.090,201.500 123.176 C 201.500 123.441,211.624 123.364,212.384 123.093 C 214.314 122.404,214.845 121.619,216.309 117.297 L 217.454 113.917 224.538 113.873 L 231.623 113.830 232.751 117.207 C 234.809 123.370,234.750 123.333,242.631 123.333 C 247.392 123.333,247.695 123.316,247.590 123.042 C 246.813 121.013,241.653 107.683,241.188 106.500 C 240.846 105.629,238.282 99.011,235.491 91.793 L 230.417 78.669 224.555 78.668 L 218.693 78.667 217.860 80.792 M254.667 100.987 L 254.667 123.333 260.249 123.333 L 265.831 123.333 265.874 111.400 L 265.917 99.467 273.409 108.942 C 283.452 121.643,283.228 121.366,283.990 122.055 C 285.231 123.176,285.473 123.227,289.875 123.297 L 293.833 123.360 293.833 101.013 L 293.833 78.667 288.251 78.667 L 282.669 78.667 282.626 90.616 L 282.583 102.565 277.321 95.907 C 274.426 92.246,270.458 87.225,268.504 84.750 C 263.381 78.264,264.199 78.770,258.708 78.695 L 254.667 78.641 254.667 100.987 M130.917 89.092 C 136.204 90.526,139.160 96.006,138.360 102.889 C 137.491 110.360,134.320 113.073,126.208 113.285 L 122.667 113.377 122.667 100.997 L 122.667 88.616 126.292 88.719 C 128.839 88.790,130.214 88.901,130.917 89.092 M226.487 98.681 C 227.488 101.652,228.358 104.215,228.421 104.375 C 228.528 104.648,228.281 104.667,224.601 104.667 C 222.437 104.667,220.667 104.604,220.667 104.527 C 220.667 104.397,224.151 94.117,224.420 93.451 C 224.594 93.021,224.507 92.801,226.487 98.681 M191.000 143.605 C 179.023 144.431,168.727 146.507,159.267 150.002 C 157.198 150.766,156.575 151.013,154.000 152.083 C 140.629 157.640,128.547 166.624,116.337 180.083 C 94.966 203.645,84.102 237.115,91.028 258.064 C 94.174 267.583,101.323 274.988,110.621 278.359 L 112.160 278.917 112.669 280.318 C 116.541 290.959,126.157 295.635,140.566 293.884 C 141.359 293.787,141.379 293.795,141.294 294.184 C 139.247 303.533,139.209 313.438,141.187 322.417 C 141.580 324.203,146.125 341.952,146.299 342.383 C 146.422 342.686,146.699 342.015,151.409 330.000 C 153.759 324.006,154.610 322.067,155.796 320.006 C 161.579 309.952,173.179 301.422,187.523 296.672 L 189.130 296.140 191.356 297.171 C 220.161 310.504,246.526 305.603,258.884 284.619 C 259.490 283.591,260.082 282.619,260.201 282.459 C 260.402 282.187,260.575 282.222,262.833 282.994 C 278.779 288.447,295.063 280.919,305.920 263.078 C 323.791 233.710,312.609 197.708,277.417 171.305 C 255.959 155.207,234.031 146.481,208.750 143.979 C 205.415 143.649,193.882 143.406,191.000 143.605 M203.333 156.168 C 218.471 157.080,226.582 159.648,233.534 165.732 C 236.791 168.582,237.870 170.105,242.738 178.722 C 248.131 188.268,252.083 192.202,258.667 194.575 C 260.922 195.388,266.500 196.387,266.500 195.977 C 266.500 195.938,265.370 194.896,263.988 193.662 C 258.110 188.412,256.153 185.188,253.267 176.000 C 252.850 174.671,252.169 172.652,251.755 171.513 C 251.341 170.374,251.026 169.419,251.055 169.390 C 251.456 168.988,264.419 177.240,270.083 181.503 C 295.559 200.675,306.824 225.611,299.664 246.982 C 297.750 252.695,294.132 259.028,290.512 263.000 L 289.677 263.917 290.821 261.629 C 297.806 247.658,293.747 233.719,280.750 227.050 C 276.622 224.932,272.732 223.839,263.333 222.157 C 256.184 220.878,252.590 219.523,248.823 216.687 C 244.566 213.481,242.731 210.923,238.113 201.750 C 232.826 191.246,230.217 187.371,225.335 182.773 C 216.995 174.917,204.242 175.150,195.083 183.325 C 193.277 184.938,193.706 185.019,191.917 182.726 C 189.372 179.465,186.183 176.406,183.615 174.763 C 182.478 174.036,182.483 174.006,183.395 176.088 C 186.325 182.774,188.964 192.760,189.406 198.833 C 189.463 199.612,189.553 200.686,189.606 201.219 L 189.702 202.187 190.809 201.133 C 200.362 192.039,208.282 188.057,213.351 189.800 C 217.680 191.288,221.116 195.682,226.859 207.080 C 230.876 215.052,232.523 217.782,235.110 220.764 C 241.583 228.225,248.801 232.148,259.750 234.157 C 275.257 237.001,279.329 239.029,281.279 244.881 C 283.540 251.669,277.945 262.124,270.665 264.714 C 267.044 266.003,257.202 265.837,255.536 264.460 C 255.382 264.333,255.267 264.353,255.120 264.535 C 254.826 264.898,252.237 266.328,249.476 267.653 C 238.884 272.736,230.140 272.784,221.083 267.811 C 216.938 265.535,213.792 263.221,204.583 255.675 C 196.735 249.243,189.642 244.312,185.125 242.146 C 184.151 241.679,184.092 242.036,185.658 238.902 C 188.109 233.992,190.016 232.541,194.752 231.983 C 200.413 231.315,205.832 233.632,213.283 239.906 C 222.285 247.485,227.353 250.085,232.667 249.849 L 233.250 249.823 232.814 249.453 C 232.574 249.250,231.879 248.671,231.269 248.167 C 229.781 246.937,227.168 243.991,223.484 239.390 C 216.579 230.767,213.491 227.696,208.759 224.750 C 197.119 217.503,183.174 219.626,176.477 229.666 C 175.427 231.240,172.667 236.569,172.667 237.022 C 172.667 237.228,172.609 237.220,169.620 236.607 C 163.490 235.349,158.762 235.141,150.520 235.765 C 129.280 237.372,115.823 246.948,111.839 263.292 C 111.394 265.116,111.524 265.078,109.889 263.861 C 101.373 257.518,99.277 245.024,103.833 227.754 C 107.285 214.670,114.757 201.097,125.064 189.186 L 126.562 187.456 126.840 189.103 C 127.189 191.161,127.675 192.936,128.421 194.867 C 129.167 196.799,129.218 196.521,127.579 199.417 C 125.210 203.601,124.772 205.035,123.990 211.167 C 123.272 216.791,123.506 221.162,124.765 225.661 C 125.287 227.528,126.539 230.736,126.811 230.902 C 126.869 230.938,126.923 229.418,126.931 227.525 C 126.955 221.804,128.005 218.308,131.669 211.750 C 133.149 209.101,133.755 208.278,134.888 207.381 C 136.616 206.014,136.369 206.056,137.453 206.942 C 142.367 210.956,150.223 213.956,157.500 214.596 C 158.996 214.728,159.135 214.893,155.667 212.417 C 142.279 202.856,136.963 194.434,138.152 184.667 C 138.877 178.713,143.957 171.661,150.155 168.007 C 164.588 159.497,184.603 155.041,203.333 156.168 M163.833 248.242 C 174.459 249.718,182.473 253.810,195.677 264.500 C 197.734 266.165,200.504 268.408,201.833 269.485 C 217.529 282.195,228.519 285.908,242.330 283.167 C 243.658 282.904,244.765 282.709,244.791 282.735 C 244.899 282.844,241.793 285.694,240.655 286.529 C 229.682 294.582,213.163 293.912,194.390 284.653 L 190.698 282.831 189.474 283.088 C 177.599 285.577,163.151 293.253,154.351 301.750 L 152.453 303.583 152.569 302.333 C 152.845 299.363,153.930 295.285,155.172 292.544 C 156.088 290.525,157.519 288.664,165.713 278.837 C 170.260 273.385,173.960 268.905,173.936 268.881 C 173.912 268.857,173.186 269.127,172.321 269.480 C 168.596 271.005,153.747 277.112,151.952 277.858 C 142.744 281.684,133.012 282.772,128.265 280.507 C 122.118 277.573,121.927 265.181,127.919 257.997 C 133.231 251.628,140.614 248.790,154.083 247.936 C 156.178 247.803,161.988 247.986,163.833 248.242 " stroke="none" fill="#241c24" fill-rule="evenodd"></path><path id="path1" d="M191.833 31.991 C 188.663 32.122,184.538 32.489,181.167 32.939 C 180.112 33.080,178.650 33.257,177.917 33.332 C 176.646 33.462,175.925 33.576,171.500 34.345 C 168.839 34.807,164.971 35.610,161.833 36.351 C 158.828 37.061,152.312 38.876,150.417 39.531 C 150.142 39.627,149.579 39.805,149.167 39.928 C 147.991 40.278,144.382 41.537,142.500 42.252 C 138.718 43.690,137.392 44.221,137.258 44.348 C 137.171 44.432,136.983 44.500,136.839 44.500 C 136.696 44.500,136.299 44.650,135.956 44.833 C 135.614 45.017,135.261 45.167,135.170 45.167 C 135.027 45.167,133.607 45.793,131.417 46.823 C 131.050 46.995,130.000 47.489,129.083 47.919 C 127.491 48.668,126.584 49.122,123.279 50.825 C 122.470 51.242,121.532 51.723,121.195 51.895 C 120.859 52.066,120.546 52.253,120.500 52.311 C 120.427 52.403,119.497 52.907,117.750 53.801 C 117.475 53.942,117.212 54.109,117.167 54.172 C 117.121 54.235,116.821 54.420,116.500 54.583 C 116.179 54.746,115.879 54.926,115.833 54.982 C 115.787 55.038,115.319 55.308,114.792 55.583 C 114.265 55.858,113.834 56.128,113.834 56.183 C 113.834 56.238,113.533 56.418,113.167 56.583 C 112.800 56.749,112.500 56.948,112.500 57.025 C 112.500 57.103,112.424 57.167,112.332 57.167 C 112.189 57.167,110.221 58.380,108.852 59.312 C 108.633 59.461,108.338 59.658,108.197 59.750 C 108.056 59.842,107.635 60.125,107.262 60.380 C 105.262 61.744,104.578 62.240,104.528 62.363 C 104.497 62.439,104.399 62.500,104.310 62.500 C 104.220 62.500,103.870 62.714,103.532 62.976 C 103.194 63.238,102.021 64.120,100.927 64.935 C 97.149 67.749,96.583 68.187,96.528 68.343 C 96.497 68.429,96.393 68.500,96.297 68.500 C 96.200 68.500,95.963 68.669,95.769 68.875 C 95.575 69.081,94.760 69.769,93.958 70.402 C 93.156 71.035,92.500 71.617,92.500 71.694 C 92.500 71.770,92.415 71.833,92.311 71.833 C 92.207 71.833,91.959 72.002,91.760 72.208 C 91.561 72.415,91.172 72.779,90.894 73.018 C 87.617 75.840,86.563 76.829,82.651 80.750 C 78.336 85.076,78.073 85.357,74.167 89.828 C 73.662 90.405,73.175 90.961,73.083 91.063 C 72.875 91.295,71.477 93.003,71.250 93.303 C 71.158 93.424,70.952 93.647,70.792 93.799 C 70.631 93.950,70.500 94.170,70.500 94.287 C 70.500 94.404,70.434 94.500,70.353 94.500 C 70.273 94.500,69.883 94.931,69.488 95.458 C 69.093 95.985,68.709 96.442,68.635 96.472 C 68.561 96.503,68.500 96.617,68.500 96.727 C 68.500 96.836,68.369 97.044,68.208 97.189 C 68.048 97.334,67.767 97.662,67.583 97.920 C 67.400 98.177,67.063 98.629,66.833 98.925 C 66.604 99.220,66.304 99.629,66.167 99.834 C 66.029 100.038,65.767 100.401,65.583 100.640 C 65.400 100.878,64.749 101.788,64.136 102.662 C 63.524 103.535,62.960 104.325,62.884 104.417 C 62.807 104.508,62.486 104.996,62.170 105.500 C 61.853 106.004,61.552 106.454,61.500 106.500 C 61.448 106.546,61.148 106.996,60.833 107.500 C 60.519 108.004,60.213 108.454,60.154 108.500 C 60.095 108.546,59.921 108.808,59.768 109.083 C 59.615 109.358,59.344 109.808,59.166 110.083 C 58.988 110.358,58.689 110.846,58.500 111.167 C 58.311 111.487,58.028 111.951,57.870 112.196 C 55.822 115.380,50.549 125.369,48.295 130.333 C 47.375 132.361,46.416 134.584,45.976 135.708 C 45.806 136.144,45.517 136.875,45.333 137.333 C 44.577 139.225,44.277 140.005,43.637 141.750 C 43.267 142.758,42.867 143.931,42.747 144.355 C 42.627 144.779,42.410 145.357,42.265 145.638 C 42.119 145.920,42.000 146.308,42.000 146.500 C 42.000 146.692,41.890 147.063,41.755 147.324 C 41.620 147.585,41.437 148.087,41.348 148.441 C 41.258 148.794,41.075 149.421,40.939 149.833 C 39.705 153.592,38.064 159.978,37.022 165.083 C 35.987 170.147,34.658 178.348,34.664 179.625 C 34.665 179.923,34.523 181.423,34.347 182.958 C 33.652 189.022,33.332 199.408,33.653 205.417 C 34.071 213.213,34.145 214.327,34.407 216.750 C 34.997 222.209,36.079 229.160,37.003 233.417 C 37.837 237.259,38.043 238.173,38.359 239.417 C 39.670 244.576,40.489 247.503,41.020 248.920 C 41.192 249.380,41.333 249.876,41.333 250.023 C 41.333 250.169,41.473 250.655,41.643 251.103 C 42.134 252.393,42.525 253.542,42.658 254.083 C 42.725 254.358,42.905 254.823,43.057 255.117 C 43.209 255.410,43.333 255.774,43.333 255.925 C 43.333 256.076,43.442 256.436,43.576 256.725 C 43.800 257.210,43.931 257.553,44.506 259.167 C 44.620 259.487,44.853 260.038,45.024 260.391 C 45.194 260.743,45.336 261.118,45.339 261.224 C 45.342 261.330,45.490 261.717,45.667 262.083 C 45.844 262.450,45.991 262.825,45.994 262.917 C 45.997 263.008,46.149 263.402,46.333 263.792 C 46.753 264.683,47.166 265.619,47.749 267.000 C 48.753 269.380,52.184 276.381,53.589 278.917 C 53.995 279.650,54.442 280.475,54.582 280.750 C 54.721 281.025,55.004 281.529,55.210 281.871 C 55.415 282.212,55.836 282.958,56.145 283.528 C 56.454 284.098,56.799 284.656,56.911 284.768 C 57.023 284.880,57.210 285.203,57.327 285.486 C 57.445 285.769,57.606 286.000,57.687 286.000 C 57.767 286.000,57.833 286.076,57.833 286.170 C 57.833 286.348,59.684 289.365,60.617 290.707 C 60.919 291.141,61.167 291.538,61.167 291.589 C 61.167 291.639,61.448 292.074,61.792 292.555 C 62.135 293.035,62.492 293.548,62.583 293.695 C 62.928 294.245,64.075 295.920,64.163 296.000 C 64.213 296.046,64.547 296.515,64.905 297.042 C 65.263 297.569,65.618 298.000,65.694 298.000 C 65.771 298.000,65.833 298.072,65.833 298.159 C 65.833 298.362,67.472 300.565,67.678 300.639 C 67.764 300.669,67.833 300.768,67.833 300.858 C 67.833 300.949,68.152 301.416,68.542 301.897 C 68.931 302.379,69.400 302.983,69.583 303.240 C 69.767 303.497,70.034 303.830,70.177 303.979 C 70.321 304.128,70.914 304.850,71.497 305.583 C 72.079 306.317,72.695 307.067,72.866 307.250 C 73.036 307.433,73.342 307.778,73.546 308.016 C 77.335 312.437,77.395 312.501,82.697 317.803 C 87.546 322.652,87.583 322.687,89.583 324.425 C 90.408 325.142,91.165 325.808,91.266 325.906 C 91.366 326.003,91.767 326.346,92.158 326.667 C 92.548 326.987,92.991 327.374,93.142 327.526 C 93.293 327.678,94.654 328.783,96.167 329.982 C 97.679 331.180,99.035 332.275,99.181 332.414 C 99.326 332.553,99.526 332.667,99.625 332.667 C 99.724 332.667,99.831 332.726,99.861 332.799 C 99.914 332.926,101.038 333.799,101.835 334.333 C 102.040 334.471,102.292 334.662,102.395 334.759 C 102.569 334.921,103.518 335.596,105.478 336.950 C 105.903 337.244,106.325 337.545,106.417 337.619 C 106.508 337.694,106.996 338.014,107.500 338.330 C 108.004 338.647,108.454 338.948,108.500 339.000 C 108.546 339.052,108.996 339.352,109.500 339.667 C 110.004 339.981,110.454 340.287,110.500 340.346 C 110.546 340.405,110.808 340.579,111.083 340.732 C 111.358 340.885,111.808 341.156,112.083 341.334 C 112.358 341.512,112.846 341.811,113.167 342.000 C 113.487 342.188,113.994 342.490,114.292 342.671 C 116.863 344.233,118.801 345.333,118.980 345.333 C 119.083 345.333,119.167 345.400,119.167 345.482 C 119.167 345.564,119.448 345.757,119.792 345.911 C 120.582 346.267,121.533 346.774,121.750 346.955 C 121.917 347.095,129.997 351.104,131.250 351.669 C 131.617 351.835,132.254 352.123,132.667 352.311 C 133.606 352.739,135.309 353.490,135.750 353.672 C 136.254 353.880,138.153 354.660,139.000 355.006 C 139.412 355.175,140.275 355.511,140.917 355.752 C 141.558 355.993,142.320 356.297,142.609 356.428 C 142.897 356.559,143.240 356.667,143.369 356.667 C 143.498 356.667,143.915 356.817,144.294 357.000 C 144.673 357.183,145.123 357.333,145.292 357.333 C 145.461 357.333,145.671 357.398,145.758 357.477 C 145.900 357.606,149.955 358.955,152.083 359.581 C 155.393 360.555,157.068 361.021,159.000 361.505 C 159.779 361.700,160.815 361.971,161.301 362.108 C 161.788 362.245,162.538 362.416,162.968 362.488 C 163.398 362.561,164.237 362.739,164.833 362.885 C 180.988 366.838,203.669 367.864,222.333 365.486 C 227.722 364.799,233.859 363.735,237.333 362.885 C 237.929 362.739,238.769 362.561,239.199 362.488 C 239.629 362.416,240.379 362.245,240.865 362.108 C 241.352 361.971,242.387 361.701,243.167 361.508 C 243.946 361.315,245.071 361.016,245.667 360.844 C 246.262 360.672,247.350 360.365,248.083 360.162 C 250.483 359.497,256.417 357.564,258.583 356.742 C 259.225 356.498,260.050 356.193,260.417 356.062 C 261.217 355.778,261.729 355.577,264.917 354.292 C 265.777 353.945,266.699 353.550,268.000 352.971 C 268.412 352.787,268.975 352.537,269.250 352.414 C 269.525 352.292,270.237 351.982,270.833 351.726 C 274.111 350.314,283.933 345.119,287.742 342.783 C 289.180 341.901,290.618 340.982,290.785 340.839 C 290.895 340.744,291.030 340.667,291.083 340.667 C 291.136 340.667,291.383 340.527,291.632 340.356 C 291.880 340.185,293.133 339.347,294.417 338.495 C 295.700 337.643,296.787 336.902,296.833 336.848 C 296.879 336.794,297.037 336.675,297.185 336.583 C 297.692 336.269,298.418 335.757,299.430 335.004 C 299.987 334.589,300.763 334.025,301.155 333.750 C 301.547 333.475,301.989 333.119,302.138 332.958 C 302.286 332.798,302.465 332.667,302.535 332.667 C 302.605 332.667,302.795 332.558,302.956 332.425 C 303.118 332.292,304.300 331.350,305.583 330.332 C 306.867 329.314,308.000 328.373,308.102 328.240 C 308.203 328.108,308.369 328.000,308.468 328.000 C 308.568 328.000,308.710 327.898,308.783 327.774 C 308.857 327.650,309.592 326.987,310.417 326.300 C 311.242 325.613,312.217 324.775,312.583 324.438 C 312.950 324.101,313.848 323.284,314.579 322.621 C 316.234 321.122,323.262 314.083,324.500 312.685 C 325.004 312.115,325.682 311.372,326.006 311.033 C 326.330 310.694,327.001 309.929,327.496 309.333 C 327.991 308.737,328.476 308.175,328.574 308.083 C 328.671 307.992,329.088 307.504,329.500 307.000 C 329.912 306.496,330.341 305.985,330.455 305.866 C 330.569 305.746,331.014 305.183,331.444 304.616 C 331.874 304.048,332.344 303.456,332.488 303.300 C 333.231 302.495,336.833 297.690,336.833 297.503 C 336.833 297.410,336.892 297.333,336.964 297.333 C 337.036 297.333,337.226 297.111,337.387 296.839 C 337.547 296.568,337.769 296.246,337.881 296.124 C 337.992 296.002,338.158 295.786,338.250 295.643 C 338.656 295.010,339.757 293.409,339.838 293.333 C 339.887 293.287,340.186 292.837,340.503 292.333 C 340.819 291.829,341.140 291.342,341.216 291.250 C 341.389 291.042,342.615 289.122,344.038 286.833 C 345.013 285.265,345.487 284.468,346.071 283.417 C 346.172 283.233,346.377 282.896,346.524 282.667 C 346.792 282.251,347.323 281.296,348.518 279.083 C 350.239 275.896,353.140 269.908,354.655 266.417 C 355.133 265.317,355.623 264.192,355.745 263.917 C 355.866 263.642,356.131 263.004,356.334 262.500 C 356.536 261.996,356.844 261.263,357.018 260.871 C 357.191 260.479,357.333 260.084,357.333 259.994 C 357.333 259.904,357.471 259.512,357.639 259.123 C 357.807 258.735,358.040 258.154,358.156 257.833 C 358.273 257.512,358.668 256.425,359.034 255.417 C 359.400 254.408,359.788 253.283,359.896 252.917 C 360.004 252.550,360.211 251.912,360.357 251.500 C 360.704 250.521,361.680 247.322,362.316 245.083 C 363.509 240.884,364.906 234.984,365.652 231.000 C 366.426 226.861,367.178 222.101,367.335 220.333 C 367.405 219.554,367.580 217.904,367.724 216.667 C 367.999 214.306,368.212 211.524,368.522 206.250 C 368.756 202.261,368.605 191.881,368.260 188.250 C 368.121 186.783,368.006 185.133,368.004 184.583 C 367.999 183.105,366.954 174.892,366.381 171.833 C 366.236 171.054,366.067 170.004,366.007 169.500 C 365.947 168.996,365.767 167.983,365.608 167.250 C 365.449 166.517,365.168 165.204,364.984 164.333 C 364.199 160.624,363.583 158.058,362.983 155.995 C 362.809 155.397,362.668 154.834,362.669 154.745 C 362.670 154.656,362.513 154.058,362.320 153.417 C 362.126 152.775,361.824 151.762,361.648 151.167 C 361.133 149.423,359.170 143.447,358.991 143.083 C 358.902 142.900,358.761 142.525,358.679 142.250 C 358.597 141.975,358.328 141.225,358.081 140.583 C 357.834 139.942,357.524 139.117,357.392 138.750 C 357.260 138.383,357.043 137.847,356.909 137.558 C 356.776 137.269,356.667 136.958,356.667 136.866 C 356.667 136.773,356.527 136.410,356.356 136.057 C 355.774 134.856,355.333 133.825,355.333 133.665 C 355.333 133.578,355.031 132.849,354.662 132.045 C 354.293 131.241,353.854 130.283,353.688 129.917 C 352.346 126.963,349.417 121.119,348.090 118.750 C 347.834 118.292,347.205 117.167,346.694 116.250 C 346.183 115.333,345.723 114.546,345.673 114.500 C 345.622 114.454,345.360 114.004,345.091 113.500 C 344.822 112.996,344.540 112.508,344.465 112.417 C 344.228 112.127,343.500 110.988,343.500 110.908 C 343.500 110.837,341.996 108.461,341.354 107.518 C 341.205 107.299,341.008 107.005,340.917 106.864 C 340.825 106.723,340.542 106.302,340.289 105.929 C 340.035 105.555,339.549 104.837,339.209 104.333 C 338.869 103.829,338.176 102.843,337.670 102.142 C 337.164 101.441,336.637 100.701,336.500 100.498 C 336.362 100.295,336.063 99.887,335.833 99.592 C 335.604 99.296,335.267 98.848,335.083 98.597 C 334.900 98.345,334.637 98.002,334.500 97.833 C 334.362 97.665,334.100 97.321,333.917 97.069 C 333.349 96.288,329.985 92.099,329.693 91.809 C 329.541 91.657,329.154 91.213,328.833 90.821 C 328.087 89.910,325.915 87.401,325.309 86.750 C 320.086 81.144,314.638 75.834,310.752 72.564 C 310.112 72.024,309.469 71.471,309.323 71.333 C 308.835 70.872,308.091 70.256,306.917 69.342 C 306.275 68.843,305.627 68.318,305.478 68.176 C 305.328 68.033,304.990 67.752,304.728 67.550 C 304.465 67.348,303.637 66.711,302.888 66.133 C 300.790 64.516,299.831 63.833,299.658 63.833 C 299.571 63.833,299.500 63.771,299.500 63.694 C 299.500 63.618,299.069 63.263,298.542 62.905 C 298.015 62.547,297.546 62.213,297.500 62.163 C 297.417 62.072,295.711 60.902,295.191 60.580 C 295.040 60.486,294.587 60.186,294.185 59.913 C 293.782 59.640,293.332 59.341,293.185 59.249 C 293.037 59.156,292.261 58.650,291.460 58.124 C 290.659 57.597,289.937 57.167,289.855 57.167 C 289.774 57.167,289.608 57.046,289.486 56.899 C 289.364 56.752,289.111 56.566,288.924 56.486 C 288.736 56.405,288.306 56.169,287.968 55.961 C 286.002 54.754,284.386 53.806,282.917 53.000 C 282.367 52.698,281.429 52.173,280.833 51.832 C 279.089 50.835,268.857 45.833,268.562 45.833 C 268.500 45.833,268.030 45.638,267.517 45.399 C 264.490 43.991,260.559 42.500,254.417 40.430 C 252.675 39.843,250.987 39.287,250.667 39.195 C 250.346 39.102,249.858 38.950,249.583 38.857 C 248.945 38.640,247.125 38.119,245.417 37.665 C 244.683 37.470,243.591 37.165,242.988 36.988 C 242.386 36.811,241.754 36.667,241.583 36.667 C 241.413 36.667,240.781 36.522,240.178 36.344 C 239.576 36.167,238.296 35.860,237.333 35.662 C 236.371 35.465,235.096 35.189,234.500 35.050 C 233.904 34.911,233.004 34.742,232.500 34.673 C 231.996 34.605,230.946 34.427,230.167 34.278 C 219.910 32.316,205.203 31.439,191.833 31.991 M185.728 78.599 C 190.085 79.407,194.072 81.416,196.736 84.145 C 197.344 84.768,197.511 85.039,197.383 85.200 C 197.289 85.319,196.350 86.583,195.295 88.008 C 192.032 92.419,191.077 92.753,187.640 90.690 C 182.899 87.845,177.512 88.259,174.082 91.734 C 168.731 97.154,169.902 108.786,176.126 112.049 C 179.573 113.856,183.952 113.540,187.136 111.254 C 188.928 109.967,189.794 109.686,190.962 110.012 C 191.792 110.244,191.866 110.309,195.400 113.953 L 197.050 115.654 196.382 116.535 C 189.574 125.526,173.580 126.344,164.932 118.144 C 156.211 109.875,155.807 94.144,164.085 85.202 C 169.051 79.839,177.883 77.144,185.728 78.599 M133.083 79.148 C 143.826 81.497,150.412 89.093,150.943 99.750 C 151.508 111.070,144.652 120.300,133.917 122.673 C 131.329 123.245,129.591 123.327,119.958 123.330 L 110.333 123.333 110.333 100.986 L 110.333 78.639 120.875 78.711 C 130.949 78.781,131.491 78.800,133.083 79.148 M235.491 91.793 C 238.282 99.011,240.846 105.629,241.188 106.500 C 241.653 107.683,246.813 121.013,247.590 123.042 C 247.695 123.316,247.392 123.333,242.631 123.333 C 234.750 123.333,234.809 123.370,232.751 117.207 L 231.623 113.830 224.538 113.873 L 217.454 113.917 216.309 117.297 C 214.845 121.619,214.314 122.404,212.384 123.093 C 211.624 123.364,201.500 123.441,201.500 123.176 C 201.500 123.090,202.149 121.346,202.942 119.301 C 205.165 113.567,206.431 110.298,207.414 107.750 C 207.909 106.467,208.809 104.142,209.414 102.583 C 210.019 101.025,210.919 98.700,211.414 97.417 C 211.909 96.133,212.810 93.808,213.416 92.250 C 214.023 90.692,214.732 88.854,214.992 88.167 C 215.466 86.918,216.291 84.795,217.860 80.792 L 218.693 78.667 224.555 78.668 L 230.417 78.669 235.491 91.793 M263.356 79.052 C 264.333 79.538,264.764 80.015,268.504 84.750 C 270.458 87.225,274.426 92.246,277.321 95.907 L 282.583 102.565 282.626 90.616 L 282.669 78.667 288.251 78.667 L 293.833 78.667 293.833 101.013 L 293.833 123.360 289.875 123.297 C 285.473 123.227,285.231 123.176,283.990 122.055 C 283.228 121.366,283.452 121.643,273.409 108.942 L 265.917 99.467 265.874 111.400 L 265.831 123.333 260.249 123.333 L 254.667 123.333 254.667 100.987 L 254.667 78.641 258.708 78.695 C 262.203 78.743,262.832 78.791,263.356 79.052 M122.667 100.997 L 122.667 113.377 126.208 113.285 C 130.803 113.165,132.246 112.805,134.369 111.248 C 139.450 107.523,139.921 96.217,135.191 91.521 C 133.038 89.383,131.384 88.862,126.292 88.719 L 122.667 88.616 122.667 100.997 M224.420 93.451 C 224.151 94.117,220.667 104.397,220.667 104.527 C 220.667 104.604,222.437 104.667,224.601 104.667 C 228.281 104.667,228.528 104.648,228.421 104.375 C 228.358 104.215,227.488 101.652,226.487 98.681 C 224.507 92.801,224.594 93.021,224.420 93.451 M208.750 143.979 C 234.031 146.481,255.959 155.207,277.417 171.305 C 312.609 197.708,323.791 233.710,305.920 263.078 C 295.063 280.919,278.779 288.447,262.833 282.994 C 260.575 282.222,260.402 282.187,260.201 282.459 C 260.082 282.619,259.490 283.591,258.884 284.619 C 246.526 305.603,220.161 310.504,191.356 297.171 L 189.130 296.140 187.523 296.672 C 173.179 301.422,161.579 309.952,155.796 320.006 C 154.610 322.067,153.759 324.006,151.409 330.000 C 146.699 342.015,146.422 342.686,146.299 342.383 C 146.125 341.952,141.580 324.203,141.187 322.417 C 139.209 313.438,139.247 303.533,141.294 294.184 C 141.379 293.795,141.359 293.787,140.566 293.884 C 126.157 295.635,116.541 290.959,112.669 280.318 L 112.160 278.917 110.621 278.359 C 101.323 274.988,94.174 267.583,91.028 258.064 C 84.102 237.115,94.966 203.645,116.337 180.083 C 128.547 166.624,140.629 157.640,154.000 152.083 C 156.575 151.013,157.198 150.766,159.267 150.002 C 168.727 146.507,179.023 144.431,191.000 143.605 C 193.882 143.406,205.415 143.649,208.750 143.979 M192.333 156.114 C 177.408 156.796,161.619 161.248,150.155 168.007 C 143.957 171.661,138.877 178.713,138.152 184.667 C 136.963 194.434,142.279 202.856,155.667 212.417 C 159.135 214.893,158.996 214.728,157.500 214.596 C 150.223 213.956,142.367 210.956,137.453 206.942 C 136.369 206.056,136.616 206.014,134.888 207.381 C 133.755 208.278,133.149 209.101,131.669 211.750 C 128.005 218.308,126.955 221.804,126.931 227.525 C 126.923 229.418,126.869 230.938,126.811 230.902 C 126.539 230.736,125.287 227.528,124.765 225.661 C 123.506 221.162,123.272 216.791,123.990 211.167 C 124.772 205.035,125.210 203.601,127.579 199.417 C 129.218 196.521,129.167 196.799,128.421 194.867 C 127.675 192.936,127.189 191.161,126.840 189.103 L 126.562 187.456 125.064 189.186 C 114.757 201.097,107.285 214.670,103.833 227.754 C 99.277 245.024,101.373 257.518,109.889 263.861 C 111.524 265.078,111.394 265.116,111.839 263.292 C 115.823 246.948,129.280 237.372,150.520 235.765 C 158.762 235.141,163.490 235.349,169.620 236.607 C 172.609 237.220,172.667 237.228,172.667 237.022 C 172.667 236.569,175.427 231.240,176.477 229.666 C 183.174 219.626,197.119 217.503,208.759 224.750 C 213.491 227.696,216.579 230.767,223.484 239.390 C 227.168 243.991,229.781 246.937,231.269 248.167 C 231.879 248.671,232.574 249.250,232.814 249.453 L 233.250 249.823 232.667 249.849 C 227.353 250.085,222.285 247.485,213.283 239.906 C 205.832 233.632,200.413 231.315,194.752 231.983 C 190.016 232.541,188.109 233.992,185.658 238.902 C 184.092 242.036,184.151 241.679,185.125 242.146 C 189.642 244.312,196.735 249.243,204.583 255.675 C 213.792 263.221,216.938 265.535,221.083 267.811 C 230.140 272.784,238.884 272.736,249.476 267.653 C 252.237 266.328,254.826 264.898,255.120 264.535 C 255.267 264.353,255.382 264.333,255.536 264.460 C 256.598 265.338,264.944 265.974,268.023 265.413 C 278.265 263.545,285.212 250.075,279.974 242.242 C 277.266 238.194,273.455 236.670,259.750 234.157 C 248.801 232.148,241.583 228.225,235.110 220.764 C 232.523 217.782,230.876 215.052,226.859 207.080 C 221.116 195.682,217.680 191.288,213.351 189.800 C 208.282 188.057,200.362 192.039,190.809 201.133 L 189.702 202.187 189.606 201.219 C 189.553 200.686,189.463 199.612,189.406 198.833 C 188.964 192.760,186.325 182.774,183.395 176.088 C 182.483 174.006,182.478 174.036,183.615 174.763 C 186.183 176.406,189.372 179.465,191.917 182.726 C 193.706 185.019,193.277 184.938,195.083 183.325 C 204.242 175.150,216.995 174.917,225.335 182.773 C 230.217 187.371,232.826 191.246,238.113 201.750 C 242.731 210.923,244.566 213.481,248.823 216.687 C 252.590 219.523,256.184 220.878,263.333 222.157 C 272.732 223.839,276.622 224.932,280.750 227.050 C 293.747 233.719,297.806 247.658,290.821 261.629 L 289.677 263.917 290.512 263.000 C 294.132 259.028,297.750 252.695,299.664 246.982 C 306.824 225.611,295.559 200.675,270.083 181.503 C 264.419 177.240,251.456 168.988,251.055 169.390 C 251.026 169.419,251.341 170.374,251.755 171.513 C 252.169 172.652,252.850 174.671,253.267 176.000 C 256.153 185.188,258.110 188.412,263.988 193.662 C 265.370 194.896,266.500 195.938,266.500 195.977 C 266.500 196.387,260.922 195.388,258.667 194.575 C 252.083 192.202,248.131 188.268,242.738 178.722 C 238.634 171.458,237.944 170.380,235.933 168.096 C 228.092 159.190,213.396 155.151,192.333 156.114 M154.083 247.936 C 139.382 248.868,130.831 252.654,126.251 260.260 C 122.687 266.179,122.726 275.543,126.329 279.146 C 130.144 282.961,140.982 282.416,151.952 277.858 C 153.747 277.112,168.596 271.005,172.321 269.480 C 173.186 269.127,173.912 268.857,173.936 268.881 C 173.960 268.905,170.260 273.385,165.713 278.837 C 157.519 288.664,156.088 290.525,155.172 292.544 C 153.930 295.285,152.845 299.363,152.569 302.333 L 152.453 303.583 154.351 301.750 C 163.151 293.253,177.599 285.577,189.474 283.088 L 190.698 282.831 194.390 284.653 C 213.163 293.912,229.682 294.582,240.655 286.529 C 241.793 285.694,244.899 282.844,244.791 282.735 C 244.765 282.709,243.658 282.904,242.330 283.167 C 228.519 285.908,217.529 282.195,201.833 269.485 C 200.504 268.408,197.734 266.165,195.677 264.500 C 179.311 251.250,168.668 247.012,154.083 247.936 " stroke="none" fill="#fccc3c" fill-rule="evenodd"></path></g></svg>